<mxfile host="www.draw.io" modified="2019-11-06T02:10:51.132Z" agent="Mozilla/5.0 (Windows NT 10.0; Win64; x64) AppleWebKit/537.36 (KHTML, like Gecko) Chrome/76.0.3809.132 Safari/537.36 OPR/63.0.3368.107" etag="H6uzouEthekXxYgCmzo_" version="12.2.0" type="github" pages="1">
  <diagram id="w7mWiVyZPYg2Z65vA2U2" name="Page-1">
    <mxGraphModel dx="1128" dy="1819" grid="1" gridSize="10" guides="1" tooltips="1" connect="1" arrows="1" fold="1" page="1" pageScale="1" pageWidth="850" pageHeight="1100" math="0" shadow="0">
      <root>
        <mxCell id="0"/>
        <mxCell id="1" parent="0"/>
        <mxCell id="q4cAkHyppMWllS5AH2et-1" value="&lt;b&gt;youtube&lt;/b&gt; - lots of inof for programming&amp;nbsp;&lt;br&gt;state design pattern&lt;br&gt;command design tutorial&lt;br&gt;abstract factory&amp;nbsp;&lt;br&gt;&lt;br&gt;Derek Banas&lt;br&gt;&lt;br&gt;factory pattern - use classes at run time&lt;br&gt;&lt;br&gt;---&lt;br&gt;next assignment - model the problem not the world - suggests starting from scratch&lt;br&gt;how fine do&amp;nbsp; you want the resolution?&lt;br&gt;break down into little chunks&lt;br&gt;can model a shape&lt;br&gt;&amp;nbsp; need the length of the line&lt;br&gt;&amp;nbsp; can put in point locators&lt;br&gt;dont do an ellipses as it is difficult - removed from homework assignment&lt;br&gt;&lt;br&gt;how are you going to store the data&lt;br&gt;how are you going to calculate the data&lt;br&gt;Arial? perimeter? area in sq meters&lt;br&gt;&lt;br&gt;fizzbuzz - programming question answer in an interview&lt;br&gt;&lt;br&gt;numbers 1- 30&lt;br&gt;n/3 = &quot;fizz&quot;&amp;nbsp;&lt;br&gt;n/5 = &quot;buzz&quot;&lt;br&gt;n = &quot;.&quot;&lt;br&gt;&lt;br&gt;in the above order&lt;br&gt;&lt;br&gt;&lt;br&gt;modular math - give back the remainder - % divided by&lt;br&gt;SOLID? no&lt;br&gt;void doFB()&lt;br&gt;&amp;nbsp;for (i = 1....30)&lt;br&gt;&amp;nbsp;if (%3) ==0&lt;br&gt;print fizz&lt;br&gt;if (%5) ==0&lt;br&gt;print buzz&lt;br&gt;if (%3)/=3 or (%5)/=5&lt;br&gt;print &quot;.&quot;&lt;br&gt;&lt;br&gt;SOLID&lt;br&gt;Single responsibility&lt;br&gt;Open for extension/closed for modification&lt;br&gt;L - WTF principle&lt;br&gt;Interface segregation principle - lots of little interfaces instead of a big one&lt;br&gt;Dependency inversion - depend on abstract rather than concretion&amp;nbsp;&lt;br&gt;&lt;br&gt;Instead setup as classes&lt;br&gt;chain of responsibility pattern - use a command pattern and string them together to determine what it wants to do&lt;br&gt;&lt;br&gt;&lt;br&gt;" style="text;html=1;strokeColor=none;fillColor=none;align=left;verticalAlign=middle;whiteSpace=wrap;rounded=0;" vertex="1" parent="1">
          <mxGeometry x="130" y="40" width="570" height="530" as="geometry"/>
        </mxCell>
      </root>
    </mxGraphModel>
  </diagram>
</mxfile>
